<?xml version="1.0" encoding="UTF-8" standalone="no"?>
<svg
   xmlns:dc="http://purl.org/dc/elements/1.1/"
   xmlns:cc="http://creativecommons.org/ns#"
   xmlns:rdf="http://www.w3.org/1999/02/22-rdf-syntax-ns#"
   xmlns:svg="http://www.w3.org/2000/svg"
   xmlns="http://www.w3.org/2000/svg"
   xmlns:sodipodi="http://sodipodi.sourceforge.net/DTD/sodipodi-0.dtd"
   xmlns:inkscape="http://www.inkscape.org/namespaces/inkscape"
   width="82.737984mm"
   height="75.849556mm"
   viewBox="0 0 82.737984 75.849556"
   version="1.1"
   id="svg8"
   inkscape:version="1.0.1 (3bc2e813f5, 2020-09-07)"
   sodipodi:docname="Icon.svg">
  <defs
     id="defs2">
    <filter
       inkscape:collect="always"
       style="color-interpolation-filters:sRGB"
       id="filter862"
       x="-4.5995257e-06"
       width="1.0000092"
       y="-5.0187464e-06"
       height="1.00001">
      <feGaussianBlur
         inkscape:collect="always"
         stdDeviation="0.00015805773"
         id="feGaussianBlur864" />
    </filter>
  </defs>
  <sodipodi:namedview
     id="base"
     pagecolor="#ffffff"
     bordercolor="#666666"
     borderopacity="1.0"
     inkscape:pageopacity="0.0"
     inkscape:pageshadow="2"
     inkscape:zoom="0.98994949"
     inkscape:cx="160.34715"
     inkscape:cy="163.05965"
     inkscape:document-units="mm"
     inkscape:current-layer="layer1"
     inkscape:document-rotation="0"
     showgrid="false"
     inkscape:window-width="1632"
     inkscape:window-height="1040"
     inkscape:window-x="130"
     inkscape:window-y="0"
     inkscape:window-maximized="0" />
  <metadata
     id="metadata5">
    <rdf:RDF>
      <cc:Work
         rdf:about="">
        <dc:format>image/svg+xml</dc:format>
        <dc:type
           rdf:resource="http://purl.org/dc/dcmitype/StillImage" />
        <dc:title></dc:title>
      </cc:Work>
    </rdf:RDF>
  </metadata>
  <g
     inkscape:label="Lager 1"
     inkscape:groupmode="layer"
     id="layer1"
     style="filter:url(#filter862)"
     transform="translate(-76.086618,-74.244823)">
    <path
       style="fill:#ffffff;fill-opacity:1;stroke:#ffffff;stroke-width:0.264583;stroke-opacity:1"
       d="m 82.802087,149.51535 c -0.672117,-0.27494 -1.657515,-0.68185 -2.189774,-0.90425 l -0.967743,-0.40434 1.991336,-3.97604 c 1.095235,-2.18682 1.991336,-4.01915 1.991336,-4.07185 0,-0.0527 -1.666875,-0.43772 -3.704167,-0.8556 -2.037291,-0.41788 -3.704166,-0.88475 -3.704166,-1.03749 0,-0.15273 2.087088,-2.10098 4.637975,-4.32943 l 4.637975,-4.05173 -0.55327,-0.89521 c -0.763143,-1.23479 -1.752539,-3.81483 -2.42979,-6.33613 -0.807162,-3.00495 -0.793463,-8.09488 0.03018,-11.21475 1.151742,-4.36266 3.801388,-8.77119 7.038384,-11.710608 1.670096,-1.516563 5.971192,-3.920112 8.731249,-4.879217 1.981638,-0.688609 2.403608,-0.73662 6.614588,-0.752598 4.5,-0.01708 6.48412,0.246989 8.13594,1.082802 0.57724,0.292084 0.7276,0.552648 0.7276,1.260899 v 0.892733 l -1.91823,-0.686656 c -1.78504,-0.638981 -2.23971,-0.686975 -6.54844,-0.691238 -4.53654,-0.0045 -4.9785,0.05488 -7.631777,1.025181 -1.850256,0.676638 -5.357527,2.782728 -6.788014,4.076152 -3.174194,2.87005 -5.6521,6.93555 -6.632351,10.88167 -0.708629,2.85268 -0.668078,7.90103 0.08501,10.58334 1.105378,3.93706 2.260095,6.37745 2.77431,5.86324 0.171494,-0.1715 0.05746,-0.65419 -0.332739,-1.40843 -1.081259,-2.09006 -1.233368,-2.45666 -1.738635,-4.19023 -0.70553,-2.42068 -0.712472,-8.94739 -0.01196,-11.24479 1.359962,-4.46014 4.038685,-8.32397 7.704087,-11.1125 4.384926,-3.335926 10.316859,-4.750591 15.989979,-3.813339 1.79957,0.297306 5.14141,1.295333 4.95651,1.480242 -0.0576,0.05764 -0.62601,-0.0823 -1.26305,-0.310983 -1.76439,-0.633375 -5.17402,-1.191617 -7.28058,-1.19202 -4.46088,-8.47e-4 -9.03544,1.513411 -12.388063,4.10068 -3.601523,2.77935 -6.104891,6.42239 -7.4543,10.84792 -0.700512,2.2974 -0.69357,8.82411 0.01196,11.24479 0.275687,0.94588 0.647839,2.01745 0.827003,2.38125 0.179165,0.3638 0.545247,1.10794 0.813517,1.65365 0.527501,1.07302 0.574978,1.10388 1.144164,0.74371 0.271739,-0.17194 0.301963,-0.34024 0.106186,-0.59126 -0.490798,-0.62928 -1.876957,-4.28451 -2.189971,-5.77485 -0.428173,-2.03864 -0.372879,-6.53047 0.105797,-8.59447 0.455953,-1.96604 1.676559,-4.72402 2.870868,-6.48678 1.333105,-1.96762 5.488566,-5.81388 6.295133,-5.82672 0.203294,-0.003 0.667281,-0.23871 1.031083,-0.523282 0.363802,-0.28457 0.846006,-0.520047 1.071563,-0.523283 0.225557,-0.0032 0.523213,-0.112979 0.661458,-0.243873 0.138245,-0.130895 1.322762,-0.503206 2.632262,-0.827359 3.23116,-0.79984 7.46329,-0.645445 10.54786,0.384804 1.61969,0.540981 2.16342,0.626474 2.45345,0.385768 0.30419,-0.252451 0.33869,-0.217339 0.18789,0.191207 -0.10159,0.275245 -0.35813,0.771386 -0.57009,1.102538 -0.34517,0.53927 -0.33417,0.6635 0.10549,1.19062 0.26998,0.3237 0.32139,0.43971 0.11425,0.25781 -0.5308,-0.46611 -0.67447,-0.41974 -1.01498,0.3276 -0.27163,0.59617 -0.22567,0.69675 0.4867,1.06513 0.43266,0.22374 0.78665,0.46633 0.78665,0.53909 0,0.0728 -0.36825,-0.0581 -0.81834,-0.29089 -0.91007,-0.47062 -0.90011,-0.47328 -1.13842,0.30382 -0.13553,0.44193 0.0473,0.70657 0.89317,1.29275 0.58498,0.40539 1.06359,0.78743 1.06359,0.84899 0,0.13736 -0.43259,-0.1156 -1.39088,-0.81333 -0.80038,-0.58276 -1.1209,-0.4361 -1.37565,0.62944 -0.1296,0.54209 0.003,0.77016 0.73551,1.2638 0.49151,0.33128 1.17932,0.91542 1.52848,1.29809 0.34916,0.38267 -0.0544,0.14138 -0.89682,-0.53619 -0.84241,-0.67757 -1.59262,-1.23195 -1.66714,-1.23195 -0.11956,0 -0.90225,1.67812 -0.90225,1.93447 0,0.0547 0.59767,0.50497 1.32816,1.00068 1.16815,0.79272 2.8494,2.76507 2.58357,3.0309 -0.0532,0.0532 -0.3725,-0.34963 -0.70962,-0.89511 -0.33713,-0.54548 -1.23808,-1.42862 -2.00213,-1.96255 l -1.38917,-0.97077 -0.29518,0.64786 c -0.26319,0.57764 -0.21678,0.6884 0.42819,1.02193 1.0929,0.56516 2.82239,2.77634 3.31898,4.24337 0.97208,2.87175 0.30751,6.00121 -1.75324,8.25601 -0.70062,0.76659 -1.50006,1.4656 -1.77653,1.55335 -0.42872,0.13607 -0.45928,0.25479 -0.20767,0.80699 0.16225,0.3561 0.37818,0.64746 0.47986,0.64746 0.20872,0 2.67557,-2.09637 2.95323,-2.5097 0.0992,-0.14763 0.37963,-0.50655 0.62322,-0.7976 0.37394,-0.44677 0.37013,-0.40557 -0.0245,0.26459 -0.43384,0.73684 -1.49568,1.79256 -2.98337,2.96619 -0.55318,0.4364 -0.58291,0.56091 -0.28826,1.20758 0.18068,0.39656 0.43629,0.72102 0.56802,0.72102 0.44675,0 1.39213,-0.58962 2.25524,-1.40657 0.47295,-0.44765 0.8599,-0.73583 0.8599,-0.64042 0,0.29525 -1.41365,1.53082 -2.24896,1.96566 -0.43656,0.22727 -0.83229,0.44653 -0.87941,0.48727 -0.0471,0.0407 0.10818,0.44887 0.34508,0.90699 l 0.43073,0.83294 1.20787,-0.67509 c 0.66433,-0.3713 1.07065,-0.50975 0.90293,-0.30765 -0.16773,0.20209 -0.65819,0.51375 -1.08993,0.69259 -0.43174,0.17883 -0.78498,0.40992 -0.78498,0.51353 0,0.10361 -0.16536,0.18839 -0.36748,0.18839 -0.20211,0 -0.78192,0.19667 -1.28847,0.43704 -1.89653,0.89996 -6.0216,1.12388 -8.18098,0.44409 -0.62821,-0.19777 -0.73865,-0.13751 -0.97134,0.52999 -0.34699,0.99537 -0.10749,1.08025 3.53223,1.25192 3.22969,0.15233 5.31039,-0.22658 7.65872,-1.39469 0.7198,-0.35805 1.43417,-0.64795 1.5875,-0.64423 0.57695,0.014 -2.98656,1.57654 -4.48628,1.96716 -1.69906,0.44255 -5.37497,0.52082 -7.27246,0.15484 -1.19018,-0.22955 -1.57457,-0.0613 -1.58447,0.69359 -0.006,0.46238 2.36918,0.88182 4.99373,0.88182 2.36345,0 5.6607,-0.66109 7.24889,-1.45339 0.43956,-0.21928 0.92975,-0.39435 1.08929,-0.38903 0.62702,0.0209 -2.10026,1.10648 -4.00105,1.59262 -3.14422,0.80415 -7.66797,0.64181 -10.257281,-0.36809 -0.434541,-0.16949 -1.542744,-0.68987 -2.462674,-1.15641 l -1.672599,-0.84826 0.08142,0.9783 c 0.07314,0.87879 0.209079,1.03873 1.336443,1.57246 3.265622,1.54604 4.347111,1.77564 8.402271,1.78384 3.9115,0.008 5.18054,-0.19808 7.67292,-1.24538 0.65484,-0.27517 1.05991,-0.36798 0.90015,-0.20624 -0.15976,0.16173 -1.17179,0.60878 -2.24896,0.99343 -1.78847,0.63866 -2.3145,0.70049 -6.05953,0.71222 -4.38372,0.0137 -5.384878,-0.19493 -8.769607,-1.82777 -1.054706,-0.50881 -1.341865,-0.5614 -1.455034,-0.26649 -0.217088,0.56572 0.132262,0.93479 1.426978,1.5075 4.336433,1.91821 9.620683,2.34381 13.957043,1.12411 3.44406,-0.96872 3.52973,-0.98655 2.53645,-0.52816 -3.4512,1.59274 -9.02126,1.93227 -13.119784,0.79975 -1.309688,-0.3619 -2.946797,-0.93753 -3.638021,-1.27917 -1.106027,-0.54667 -1.256771,-0.56792 -1.256771,-0.17718 0,0.4488 0.330749,0.65759 2.248958,1.41973 2.346485,0.9323 4.516368,1.30847 7.672918,1.33017 3.2505,0.0224 6.56307,-0.52047 8.15188,-1.33582 l 0.74355,-0.38158 -0.0821,1.13359 -0.0821,1.13358 -2.51354,0.63091 c -4.65398,1.16816 -10.58376,0.81268 -14.627464,-0.87689 -1.747517,-0.73016 -1.696951,-0.83168 -1.909138,3.83283 -0.105993,2.33004 -0.301299,4.30354 -0.434014,4.38557 -0.132714,0.082 -1.506943,-1.02071 -3.053842,-2.4505 -1.546898,-1.4298 -2.86086,-2.48057 -2.919914,-2.33505 -1.338009,3.29709 -3.486932,7.68183 -3.786323,7.72574 -0.214005,0.0314 -0.939013,-0.16788 -1.611129,-0.44283 z m 3.483878,-4.21822 c 0.938796,-2.18975 1.809037,-3.98347 1.93387,-3.98605 0.124833,-0.003 1.464286,1.1411 2.976562,2.5415 l 2.749594,2.54618 v -0.92494 c 0,-0.50872 0.302501,-5.67286 0.672224,-11.47586 0.369723,-5.80302 0.637613,-10.84117 0.595312,-11.1959 -0.068,-0.57021 -1.123239,0.27317 -9.103826,7.27604 -6.561961,5.75804 -8.910055,7.96526 -8.598958,8.08303 0.235376,0.0891 1.826942,0.44365 3.536811,0.78785 2.032124,0.40908 3.108854,0.74364 3.108854,0.96599 0,0.18708 -0.84059,2.01813 -1.867978,4.069 -1.027388,2.05086 -1.792363,3.80445 -1.699945,3.89687 0.261875,0.26188 3.682517,1.58274 3.845396,1.48489 0.07985,-0.048 0.913288,-1.87884 1.852084,-4.0686 z m 13.971445,-12.81099 c -0.0515,-0.0308 -0.964451,-0.4667 -2.028689,-0.96873 -1.064239,-0.50203 -2.061083,-1.06472 -2.21521,-1.25043 -0.486675,-0.58641 -0.78107,-0.36793 -0.695221,0.51594 0.07286,0.75014 0.27562,0.95055 1.673044,1.65364 2.774526,1.39596 2.87658,1.41941 3.133776,0.72004 0.1243,-0.33799 0.18383,-0.6397 0.1323,-0.67046 z m 0.30316,-0.6831 c 0,-0.13362 0.0726,-0.4321 0.16131,-0.66329 0.12349,-0.32182 -0.29513,-0.62909 -1.785941,-1.31092 -1.070981,-0.48981 -2.174052,-1.14383 -2.451267,-1.45337 -0.70492,-0.78713 -0.951181,-0.7037 -0.951181,0.32223 0,1.04693 0.370113,1.41679 2.513542,2.51182 1.608604,0.82181 2.513537,1.03549 2.513537,0.59353 z m 6.71479,-0.82438 c 1.45381,-0.21015 3.2015,-0.76053 3.82191,-1.20358 0.0471,-0.0336 -0.0982,-0.4167 -0.32291,-0.85125 l -0.40857,-0.79008 -1.1323,0.41878 c -1.11137,0.41104 -5.37589,0.61052 -6.80809,0.31846 -0.55062,-0.11229 -0.68664,-0.002 -0.89947,0.73212 -0.13791,0.47544 -0.1812,0.93398 -0.0962,1.01898 0.15012,0.15013 2.42881,0.53587 3.49646,0.5919 0.29104,0.0153 1.34816,-0.0906 2.34916,-0.23533 z m -6.00207,-1.4075 0.27232,-0.88732 -1.616995,-0.80136 c -0.88935,-0.44074 -2.169107,-1.28989 -2.843905,-1.887 -1.182831,-1.04664 -1.232602,-1.06439 -1.385449,-0.49413 -0.32243,1.20295 -0.160649,1.8207 0.661748,2.52682 0.681252,0.58494 3.928511,2.32819 4.485901,2.4082 0.0847,0.0122 0.27659,-0.37718 0.42638,-0.86521 z m 7.13511,-1.07003 c 1.93528,-0.51528 1.98905,-0.57136 1.51033,-1.57525 l -0.41332,-0.86673 -1.36357,0.47124 c -1.49746,0.51751 -3.54732,0.62203 -4.85336,0.24747 -0.7871,-0.22574 -0.85861,-0.189 -1.1262,0.57861 -0.30629,0.87862 -0.18578,1.12548 0.64725,1.32585 1.11862,0.26906 4.29372,0.16631 5.59887,-0.18119 z m -6.55079,-0.99254 c 0.15976,-0.45828 0.29046,-0.87151 0.29046,-0.91829 0,-0.0468 -0.63394,-0.38496 -1.40876,-0.75151 -1.335866,-0.63197 -3.361106,-2.51247 -4.081339,-3.78966 -0.620427,-1.1002 -0.821227,-1.51239 -0.972656,-1.99661 -0.123032,-0.39342 -0.312488,-0.44958 -1.011501,-0.29982 -0.473063,0.10135 -0.886013,0.20618 -0.917666,0.23296 -0.131661,0.1114 0.558755,2.00616 0.731005,2.00616 0.103287,0 0.336014,-0.17859 0.517172,-0.39688 0.602516,-0.72598 0.79375,-0.41268 0.79375,1.30043 0,1.6929 0.0033,1.70019 1.256771,2.80577 1.069662,0.94344 3.783714,2.58695 4.339744,2.62795 0.0949,0.007 0.30326,-0.36222 0.46302,-0.8205 z m -12.53803,-1.02305 c 0.467923,-0.51705 0.465835,-0.56762 -0.06828,-1.65365 -0.303033,-0.61615 -0.697322,-1.61993 -0.876196,-2.23062 -0.304247,-1.0387 -0.37827,-1.10294 -1.14748,-0.99576 -0.707232,0.0985 -0.729725,0.0856 -0.160795,-0.0923 l 0.661458,-0.20692 -0.09113,-3.29523 c -0.104433,-3.77645 0.250283,-5.58939 1.680098,-8.5869 1.332553,-2.79361 4.109005,-5.86957 6.520725,-7.22415 2.793244,-1.56887 3.553113,-1.88317 5.59979,-2.316202 3.22638,-0.682628 7.56312,-0.352556 10.26441,0.781232 0.93935,0.39426 0.96037,0.38945 1.27031,-0.2908 0.38471,-0.844341 0.28082,-0.927919 -2.09317,-1.683886 -1.12105,-0.356987 -2.77921,-0.599022 -4.76284,-0.695217 -2.58945,-0.125573 -3.39795,-0.05972 -5.42396,0.441799 -1.309496,0.324153 -2.494013,0.696465 -2.632258,0.827359 -0.138245,0.130895 -0.435901,0.240637 -0.661458,0.243873 -0.225557,0.0032 -0.707761,0.238713 -1.071563,0.523282 -0.363802,0.28457 -0.827789,0.52005 -1.031083,0.52329 -0.789065,0.0126 -4.678725,3.60608 -6.0205,5.56213 -1.193832,1.74038 -2.420934,4.50336 -2.880918,6.48678 -0.830847,3.58254 -0.420898,8.75634 0.943045,11.90176 0.315509,0.72761 0.678324,1.59081 0.806256,1.91823 0.287105,0.7348 0.553893,0.74886 1.175539,0.0619 z m 18.60131,-0.13835 c 1.34769,-0.40022 1.58624,-0.69551 1.13595,-1.40613 -0.18861,-0.29764 -0.33299,-0.29931 -0.85585,-0.01 -0.37855,0.20953 -1.57699,0.35689 -3.01021,0.37012 -2.21842,0.0205 -2.38685,0.0605 -2.46311,0.58477 -0.0598,0.41089 0.083,0.59427 0.52916,0.67949 1.3613,0.26005 3.36978,0.16602 4.66406,-0.21834 z m -5.50823,-0.36498 c 0,-0.13362 0.0609,-0.40161 0.1353,-0.59554 0.0826,-0.2153 -0.20069,-0.49799 -0.7276,-0.726 -1.96144,-0.84878 -3.627515,-2.66979 -4.408661,-4.81862 -0.20441,-0.56232 -0.381591,-0.66989 -0.93048,-0.56497 -0.581565,0.11118 -0.653714,0.22877 -0.507297,0.82686 0.206263,0.84255 1.888624,3.36839 2.818063,4.23095 0.619052,0.57451 2.961675,1.86279 3.422235,1.88199 0.10914,0.005 0.19844,-0.10105 0.19844,-0.23467 z m -11.658315,-0.66304 c 0.24489,-0.29507 0.198718,-0.62709 -0.212848,-1.53053 -0.289068,-0.63455 -0.606719,-1.47701 -0.705891,-1.87215 -0.182201,-0.72594 -0.97814,-0.99658 -1.317247,-0.44789 -0.194801,0.31519 0.569061,2.76381 1.133051,3.63207 0.45014,0.693 0.672568,0.73706 1.102935,0.2185 z m 17.463175,-0.67297 c 0.49553,-0.2652 0.51087,-0.35945 0.18571,-1.141 -0.25586,-0.61496 -0.49434,-0.82398 -0.8574,-0.75145 -0.27663,0.0553 -1.30185,0.11479 -2.27826,0.13229 l -1.7753,0.0318 -0.26492,0.92604 -0.26493,0.92604 0.13109,-1.05833 c 0.12445,-1.00474 0.0804,-1.08514 -0.8702,-1.58765 -0.86148,-0.45542 -2.45258,-2.36938 -2.775814,-3.33909 -0.07821,-0.23463 -0.334042,-0.23268 -1.063693,0.008 -0.93872,0.3098 -0.953974,0.33642 -0.666395,1.16263 0.853417,2.45186 2.726612,4.13438 5.489002,4.93027 1.10464,0.31826 4.24963,0.16783 5.01111,-0.2397 z m -15.46433,-1.15799 c 1.290151,-1.13527 1.303052,-1.16217 1.046797,-2.18281 -0.232167,-0.9247 -0.339978,-1.02752 -1.025151,-0.97776 -1.192873,0.0866 -1.319861,0.41368 -0.702531,1.80926 0.306453,0.69278 0.510075,1.30673 0.452493,1.36431 -0.05758,0.0576 -0.380141,-0.55987 -0.716796,-1.37211 -0.417638,-1.00763 -0.728501,-1.43214 -0.978487,-1.33621 -0.201512,0.0773 -0.490594,0.1406 -0.642402,0.1406 -0.16302,0 -0.213626,0.31195 -0.123614,0.76201 0.182481,0.91241 1.038058,2.94215 1.240173,2.94215 0.0788,0 0.73108,-0.51724 1.449518,-1.14944 z m 18.24424,-0.76879 c 2.12336,-2.20326 2.81568,-5.35404 1.82096,-8.28724 -0.50429,-1.48702 -1.98945,-3.41552 -3.06438,-3.97913 -0.70904,-0.37176 -0.73997,-0.35774 -1.16174,0.5267 l -0.4333,0.90864 0.93563,0.82149 c 1.82993,1.6067 2.5666,4.53967 1.67575,6.67177 -0.20545,0.49173 -0.85916,1.37485 -1.45268,1.96249 -1.0337,1.02347 -1.06566,1.10415 -0.75906,1.9164 0.17603,0.46637 0.49558,0.84795 0.7101,0.84795 0.21452,0 0.99245,-0.62508 1.72872,-1.38907 z m -3.50801,-0.40686 c 0.22978,-0.22978 0.23137,-0.47102 0.006,-0.96485 -0.27311,-0.59941 -0.37296,-0.63304 -1.11327,-0.37497 -0.44729,0.15593 -1.11537,0.22575 -1.48463,0.15516 -0.53096,-0.1015 -0.7231,0.008 -0.91874,0.52228 -0.13605,0.35785 -0.17179,0.77291 -0.0794,0.92237 0.2204,0.35661 3.18802,0.14168 3.58969,-0.25999 z m -4.59577,-2.14315 c -0.57905,-0.49564 -1.16393,-1.19344 -1.29975,-1.55065 -0.16671,-0.43849 -0.3817,-0.59777 -0.66177,-0.4903 -0.22816,0.0876 -0.58369,0.15919 -0.79007,0.15919 -0.572522,0 -0.453072,0.56742 0.40394,1.91878 0.45247,0.71347 1.2013,1.44806 1.78593,1.75197 l 1.00677,0.52335 0.30388,-0.70558 c 0.28099,-0.65241 0.22455,-0.7735 -0.74893,-1.60676 z m 6.42406,0.83022 c 1.19524,-1.31092 1.56161,-2.19907 1.56161,-3.78564 0,-1.6236 -0.82719,-3.46959 -1.94766,-4.34649 l -0.82567,-0.64619 -0.35506,0.67767 c -0.31396,0.59921 -0.29485,0.74359 0.16509,1.24723 0.75858,0.83064 1.3758,2.1603 1.3758,2.96384 0,0.91965 -0.72518,2.42249 -1.39552,2.89202 -0.47706,0.33414 -0.49777,0.45774 -0.19799,1.18146 0.18413,0.44456 0.42029,0.80829 0.52478,0.80829 0.10449,0 0.59707,-0.44649 1.09462,-0.99219 z m -20.161698,-0.0661 c 0.106603,0 0.143943,-1.33946 0.08298,-2.97657 -0.127734,-3.43002 0.262501,-5.39054 1.614973,-8.11355 0.92267,-1.85766 4.213924,-5.45203 5.692272,-6.21652 0.702231,-0.36313 0.833484,-0.55808 0.693146,-1.02952 -0.168776,-0.56696 -0.163193,-0.56853 0.222489,-0.0624 0.297173,0.38999 0.485025,0.44813 0.754969,0.23363 0.197648,-0.15706 1.073736,-0.56079 1.946859,-0.89719 1.34031,-0.51639 2.10247,-0.61457 4.89479,-0.6305 2.82369,-0.0161 3.57295,0.0728 5.12408,0.60828 1.49981,0.51773 1.85687,0.56389 2.04647,0.26458 0.42654,-0.67333 0.24199,-0.91805 -1.01899,-1.35123 -1.97146,-0.67725 -3.89526,-0.995712 -6.01499,-0.995712 -1.94922,0 -5.268335,0.559422 -6.152465,1.036972 -0.256517,0.13855 -0.823581,0.41871 -1.260143,0.62258 -2.616955,1.22208 -3.92756,2.22367 -5.907541,4.51463 -2.634085,3.0478 -4.014334,6.8626 -4.014334,11.095 0,3.12424 0.199061,4.24383 0.719071,4.04428 0.210398,-0.0807 0.469762,-0.14679 0.576366,-0.14679 z m 17.691358,-0.37777 c 0.0489,-0.0489 0.009,-0.40938 -0.0898,-0.80101 -0.12727,-0.50709 -0.26045,-0.63031 -0.46266,-0.4281 -0.15618,0.15618 -0.60345,0.28396 -0.99393,0.28396 -0.68843,0 -1.21923,0.78607 -0.80907,1.19814 0.1581,0.15883 2.15845,-0.056 2.35542,-0.25299 z m -15.924554,-0.0893 c 0.177226,-0.12125 0.226997,-0.74186 0.132292,-1.64959 -0.515062,-4.93677 1.406455,-9.74548 5.058032,-12.65802 0.7726,-0.61624 1.577818,-1.22722 1.789374,-1.35775 0.3247,-0.20033 0.330278,-0.33891 0.0358,-0.88915 l -0.348852,-0.65184 -0.961838,0.56116 c -0.52901,0.30863 -1.795836,1.40997 -2.815168,2.44743 -3.007679,3.06115 -4.367575,6.44987 -4.360764,10.86657 0.002,1.28868 0.0754,2.61095 0.16315,2.93837 0.157812,0.58887 0.757981,0.76912 1.307978,0.39282 z m 13.341924,-0.55916 c 0,-0.25621 -0.29766,-0.72464 -0.66146,-1.04097 -0.3638,-0.31632 -0.66146,-0.70326 -0.66146,-0.85986 0,-0.15661 -0.26789,-0.24669 -0.59531,-0.20019 -0.84579,0.12012 -0.6479,0.94382 0.48373,2.01354 0.94032,0.88887 1.4345,0.91901 1.4345,0.0875 z m -11.06367,-2.37111 c -0.15946,-4.37745 1.71645,-7.99271 5.519424,-10.63706 0.569634,-0.39609 0.573969,-0.43411 0.144219,-1.26515 l -0.443065,-0.85679 -0.805222,0.4714 c -1.814298,1.06215 -3.886902,3.44439 -4.94685,5.68589 -1.208124,2.55484 -1.395876,3.41267 -1.395876,6.37768 0,2.88185 0.09324,3.10333 1.16776,2.77379 l 0.843073,-0.25857 z m 15.39481,1.1837 c 0.23725,-0.49997 0.43136,-1.19324 0.43136,-1.54059 0,-0.75637 -1.06343,-2.92744 -1.4989,-3.06013 -0.51475,-0.15684 -0.65314,0.86512 -0.22763,1.68105 0.51893,0.99507 0.50893,1.83067 -0.0329,2.7479 -0.24008,0.40641 -0.36091,0.93593 -0.26851,1.17671 0.2448,0.63795 1.06063,0.12444 1.59656,-1.00494 z m -13.723847,0.74088 c 0.474532,-0.12789 0.532294,-0.3802 0.559452,-2.44378 0.01666,-1.26564 0.167119,-2.64064 0.334362,-3.05555 0.615298,-1.52649 2.282565,-3.70815 3.504997,-4.58638 l 1.256626,-0.9028 -0.527916,-0.89475 -0.527918,-0.89476 -0.868632,0.58947 c -3.302615,2.24122 -5.186179,5.85405 -5.186179,9.94752 0,2.45935 0.09609,2.60734 1.455208,2.24103 z m 11.340327,-0.6439 c -0.0202,-0.21828 -0.11709,-0.635 -0.21528,-0.92604 -0.0982,-0.29104 0.023,-0.17979 0.26921,0.24723 0.42603,0.73876 0.46532,0.75234 0.81059,0.28016 0.4554,-0.62279 0.45082,-1.65768 -0.011,-2.49131 l -0.35511,-0.641 -0.4461,0.77329 c -0.41734,0.72344 -0.4272,0.54674 -0.0251,-0.45083 0.12645,-0.31375 -0.0134,-0.47727 -0.51595,-0.60341 -0.94672,-0.23761 -1.25963,0.009 -0.91261,0.71911 0.27111,0.55482 0.26227,0.55354 -0.20977,-0.0305 -0.47221,-0.58427 -0.51039,-0.5898 -0.91251,-0.13229 -0.23082,0.26262 -0.5069,0.76298 -0.61351,1.11192 -0.18294,0.59877 -0.1438,0.62622 0.69631,0.48832 0.87027,-0.14286 0.8739,-0.13964 0.16254,0.14424 -0.86379,0.34471 -0.91835,0.72733 -0.19682,1.38031 0.57244,0.51805 0.56494,0.52 1.02133,-0.26606 0.27166,-0.46788 0.28757,-0.44249 0.1374,0.21929 -0.15884,0.69995 -0.1205,0.74281 0.59168,0.66146 0.48381,-0.0553 0.74811,-0.23173 0.72476,-0.48387 z m -9.320654,-1.26105 c -0.13582,-2.52379 1.467474,-5.9114 3.313144,-7.00038 0.90849,-0.53601 1.04855,-0.86011 0.6462,-1.49532 -0.55564,-0.87722 -3.882151,2.47836 -4.768828,4.8105 -0.372002,0.97844 -0.639955,3.75301 -0.439556,4.55147 0.131147,0.52253 0.315994,0.67316 0.749068,0.61039 0.518313,-0.0751 0.567568,-0.22059 0.499972,-1.47666 z m 1.907511,0.84926 c 0.477899,-0.12138 0.574909,-0.34713 0.596407,-1.38794 0.03164,-1.53151 1.142896,-3.82973 2.159186,-4.46543 0.39906,-0.24962 0.7641,-0.47882 0.81121,-0.50934 0.0717,-0.0465 -0.67493,-1.6602 -0.87971,-1.90136 -0.0359,-0.0423 -0.49619,0.17734 -1.02284,0.48807 -1.780211,1.05035 -3.342479,4.13673 -3.342479,6.60332 0,1.34077 0.170266,1.67728 0.738364,1.45928 0.203021,-0.0779 0.625959,-0.20688 0.939862,-0.2866 z m 2.184723,-0.58445 c 0.16008,-0.10691 0.35904,-0.7148 0.44213,-1.35087 0.10684,-0.81786 0.40291,-1.41632 1.01119,-2.0439 0.77225,-0.79676 0.82856,-0.95668 0.5512,-1.56542 -0.27396,-0.60128 -0.3758,-0.64221 -0.89992,-0.36171 -0.32505,0.17396 -0.72849,0.45378 -0.89653,0.62182 -0.60307,0.60307 -1.438129,2.5419 -1.598386,3.7111 -0.154291,1.12568 -0.12845,1.19124 0.467966,1.18742 0.3472,-0.002 0.76226,-0.0915 0.92235,-0.19844 z m 1.82548,-1.1199 c 0.0893,-0.40667 0.39377,-0.9488 0.67657,-1.20473 0.6013,-0.54416 0.65354,-0.99659 0.16216,-1.4044 -0.59271,-0.4919 -1.79851,1.00935 -1.95976,2.43995 -0.12467,1.10604 -0.0942,1.1839 0.41199,1.05154 0.32608,-0.0853 0.61216,-0.44129 0.70904,-0.88236 z m 3.81979,-2.92691 c -0.46153,-0.29205 -2.54859,-0.32828 -2.72227,-0.0473 -0.21498,0.34784 0.53681,1.13779 0.93677,0.98431 0.20989,-0.0805 0.6715,-0.0362 1.0258,0.0985 0.52379,0.19918 0.6905,0.14777 0.89199,-0.27505 0.17871,-0.37502 0.14182,-0.58709 -0.13229,-0.76053 z m 0.83325,-0.80548 c 0.44223,-0.69842 0.2393,-1.01093 -0.84627,-1.30325 -1.06817,-0.28762 -2.69372,-0.16994 -3.36259,0.24344 -0.25846,0.15974 -0.26997,0.36066 -0.0485,0.8469 0.26884,0.59028 0.42854,0.63543 2.15697,0.60978 1.28437,-0.0191 1.93957,-0.14286 2.10041,-0.39687 z m -2.13939,-1.80116 c 0.36381,0 1.09475,0.1548 1.62432,0.344 0.95688,0.34186 0.96551,0.33844 1.38906,-0.54976 0.23442,-0.49156 0.42621,-0.9348 0.42621,-0.98497 0,-0.0502 -0.38696,-0.25406 -0.8599,-0.45308 -1.07628,-0.45293 -3.97979,-0.45553 -5.28731,-0.005 l -0.98783,0.34057 0.51585,1.01116 0.51586,1.01115 1.00114,-0.35716 c 0.55063,-0.19644 1.2988,-0.35716 1.6626,-0.35716 z m -2.08971,-2.03528 c 1.73161,-0.44362 3.62553,-0.35792 4.89744,0.2216 0.53872,0.24545 0.71702,0.23046 0.91134,-0.0767 0.43689,-0.69052 0.26389,-0.95387 -0.87479,-1.33166 -1.32778,-0.44053 -4.93022,-0.47403 -5.80389,-0.054 -0.33674,0.1619 -0.82576,0.36293 -1.08669,0.44673 -0.38564,0.12384 -0.42103,0.25213 -0.18913,0.68545 0.34114,0.63743 0.12412,0.62645 2.14572,0.10854 z m -0.86537,-1.51424 c 0.60258,-0.47617 4.79252,-0.37038 6.07033,0.15327 1.1259,0.4614 1.13191,0.46082 1.36822,-0.13229 0.13054,-0.32765 0.65882,-1.54823 1.17395,-2.7124 l 0.93659,-2.11666 -0.81451,-0.34416 c -3.11165,-1.31478 -7.86309,-1.45064 -10.93887,-0.3128 -2.050136,0.75842 -2.403513,1.07812 -1.966021,1.77865 0.326018,0.52204 0.345304,0.52064 1.941401,-0.1412 2.7443,-1.13794 8.50447,-1.07612 10.47566,0.11243 0.42685,0.25737 0.47377,0.33327 0.13229,0.21397 -3.18491,-1.11262 -7.29558,-1.21874 -10.01651,-0.25858 -0.997939,0.35215 -1.869921,0.69576 -1.93774,0.76358 -0.06782,0.0678 0.05942,0.47667 0.282756,0.90855 l 0.406064,0.78524 1.92855,-0.65528 c 1.69205,-0.57493 2.23679,-0.63808 4.44209,-0.51499 1.38245,0.0772 2.98979,0.33222 3.57188,0.56682 1.07892,0.43483 0.576,0.39705 -1.32292,-0.0994 -1.75814,-0.45963 -4.63158,-0.34395 -6.57003,0.26451 -0.97039,0.30459 -1.764345,0.60816 -1.764345,0.67459 0,0.0664 0.182338,0.4734 0.405195,0.90436 0.34427,0.66574 0.51335,0.75774 1.12448,0.61183 0.3956,-0.0945 0.87778,-0.29697 1.07149,-0.45005 z m 39.66602,34.47663 c -0.25466,-0.15673 -0.46302,-0.52991 -0.46302,-0.82929 0,-0.4154 0.10967,-0.4987 0.46302,-0.35169 0.25466,0.10595 0.99898,0.25005 1.65404,0.32023 1.38369,0.14825 1.9017,-0.25664 2.32561,-1.81769 l 0.26192,-0.96457 -0.93401,0.63384 c -1.12757,0.76519 -2.17293,0.80922 -3.01367,0.12692 -0.54338,-0.44099 -0.62142,-0.72487 -0.60001,-2.18281 0.0512,-3.48712 2.34761,-5.75956 4.72544,-4.67614 0.37065,0.16888 0.67753,0.43677 0.68196,0.59531 0.004,0.15854 0.1294,0.0799 0.27773,-0.17476 0.14832,-0.25466 0.50991,-0.46302 0.80353,-0.46302 0.3834,0 0.49586,0.13049 0.39904,0.46302 -0.0741,0.25466 -0.46068,2.12212 -0.85896,4.1499 -0.90919,4.6289 -1.31727,5.22052 -3.69891,5.3626 -0.85838,0.0512 -1.76905,-0.0351 -2.02371,-0.19185 z m 2.83832,-3.74369 c 0.84492,-0.38496 1.61837,-1.6052 1.94834,-3.07379 0.23143,-1.03005 0.19817,-1.16096 -0.41814,-1.64576 -0.89999,-0.70793 -1.55544,-0.66303 -2.31701,0.15872 -0.83502,0.901 -1.39022,3.29846 -0.97492,4.20993 0.33347,0.73191 0.74543,0.81397 1.76173,0.3509 z m -28.15741,0.85394 c -1.42036,-1.42036 -0.58058,-5.44026 1.38715,-6.64005 1.01366,-0.61807 1.8022,-0.65381 2.81938,-0.1278 l 0.75544,0.39065 0.4401,-1.97815 c 0.39135,-1.75903 0.50739,-1.97815 1.04762,-1.97815 h 0.60752 l -1.08859,5.35781 c -0.97903,4.81856 -1.14185,5.35781 -1.61776,5.35781 -0.408,0 -0.50851,-0.14632 -0.43898,-0.63906 l 0.0902,-0.63906 -0.83809,0.7052 c -1.02151,0.85955 -2.41142,0.94337 -3.16398,0.1908 z m 3.10733,-1.28825 c 0.97586,-0.91159 1.80473,-3.36908 1.32947,-3.94173 -1.42222,-1.71368 -3.33984,-0.43831 -3.81574,2.53778 -0.33152,2.0732 0.97815,2.81275 2.48627,1.40395 z m 5.05964,1.02926 c -1.13637,-1.13636 -0.99772,-3.25358 0.341,-5.20732 1.83629,-2.67989 6.69825,-1.77934 5.22776,0.96829 -0.44352,0.82873 -1.69659,1.30827 -3.4186,1.30827 h -1.60064 v 0.90714 c 0,0.49893 0.18709,1.09424 0.41577,1.32292 0.47415,0.47414 2.26431,0.55766 3.0412,0.14188 0.42899,-0.22959 0.51178,-0.18573 0.51178,0.27113 0,0.67535 -0.92742,1.06109 -2.55112,1.06109 -0.96663,0 -1.3409,-0.14714 -1.96715,-0.7734 z m 4.19649,-4.34767 c 0.57784,-0.57785 0.15405,-1.32735 -0.8163,-1.44368 -0.92235,-0.11057 -1.53915,0.26007 -2.13915,1.28542 l -0.4991,0.85293 1.50472,-0.12478 c 0.91747,-0.0761 1.67843,-0.2985 1.94983,-0.56989 z m 2.63688,4.8353 c -0.25466,-0.14833 -0.46302,-0.51463 -0.46302,-0.81402 0,-0.41951 0.10617,-0.49768 0.46302,-0.3409 0.86623,0.38056 2.45145,0.44379 2.84925,0.11365 0.75537,-0.62691 0.47332,-1.53108 -0.65759,-2.10803 -1.65693,-0.8453 -2.03645,-2.01948 -1.05572,-3.26628 0.91523,-1.16352 3.95729,-1.29363 3.95729,-0.16926 0,0.43632 -0.15155,0.47773 -1.26557,0.34579 -0.96097,-0.11381 -1.34831,-0.0502 -1.60935,0.26434 -0.55634,0.67036 -0.24577,1.28531 1.02314,2.02583 1.23261,0.71935 1.51477,1.31637 1.20515,2.54998 -0.32735,1.30428 -3.10743,2.17889 -4.4466,1.3989 z m 6.31309,0.0685 c -0.0838,-0.13563 0.16054,-1.80909 0.54301,-3.71882 0.66002,-3.29544 0.72775,-3.47223 1.33035,-3.47223 0.7203,0 0.74129,-0.3533 -0.26708,4.49487 -0.43188,2.07647 -0.68753,2.79619 -1.01553,2.85892 -0.2411,0.0461 -0.50694,-0.0271 -0.59075,-0.16274 z m 11.74472,-0.32715 c 0,-0.51108 0.93356,-5.38822 1.22522,-6.40088 0.19021,-0.66042 1.2601,-0.62498 1.08725,0.036 -0.11781,0.45052 -0.0401,0.43766 0.79981,-0.1323 1.07552,-0.72987 2.07779,-0.80534 2.91427,-0.21945 0.73161,0.51244 0.75643,1.69145 0.10274,4.87979 -0.39953,1.9487 -0.53921,2.26025 -1.04623,2.33351 -0.71095,0.10273 -0.74486,-0.40333 -0.18297,-2.73038 0.56353,-2.33385 0.51633,-3.49662 -0.15054,-3.70828 -1.28985,-0.40938 -2.6743,1.36626 -3.17262,4.06907 -0.17805,0.96573 -0.44168,1.9047 -0.58585,2.0866 -0.40813,0.51495 -0.99108,0.38925 -0.99108,-0.2137 z m -10.31875,-8.69434 c 0,-0.63441 0.37555,-1.07998 0.91025,-1.07998 0.75529,0 0.91611,0.17351 0.74991,0.80907 -0.0938,0.35887 -0.36447,0.51385 -0.89726,0.51385 -0.41959,0 -0.7629,-0.10933 -0.7629,-0.24294 z m -20.36504,-3.60127 c -2.1247,-0.95474 -3.01045,-2.55939 -2.99768,-5.43065 0.0167,-3.76026 1.6614,-5.98996 4.78698,-6.48976 1.14758,-0.1835 2.80618,0.23112 3.56064,0.89012 0.44723,0.39063 0.63592,1.64882 0.29797,1.98677 -0.0908,0.0908 -0.62182,-0.068 -1.18009,-0.35278 -2.36317,-1.20559 -4.15882,-0.27595 -4.72382,2.44561 -0.43147,2.07838 0.0651,4.09077 1.19162,4.82888 0.77747,0.50942 2.67381,0.5163 3.55442,0.0129 1.09964,-0.62861 1.36386,-0.50541 1.27275,0.59343 -0.0663,0.79914 -0.23535,1.06467 -0.87587,1.37549 -1.16032,0.56306 -3.77852,0.63806 -4.88692,0.13999 z m 23.30635,0.0406 c -1.17049,-0.4234 -2.31083,-1.58474 -2.72973,-2.77998 -0.18446,-0.52635 -0.33027,-1.84996 -0.32401,-2.94137 0.0205,-3.56539 1.70099,-5.74086 4.82002,-6.23962 1.14759,-0.1835 2.80618,0.23112 3.56064,0.89012 0.49087,0.42875 0.63273,1.7738 0.21435,2.03238 -0.13678,0.0845 -0.64279,-0.0866 -1.12448,-0.38027 -3.04379,-1.85575 -5.81561,1.32739 -4.68902,5.38483 0.44119,1.58894 1.29432,2.2815 2.809,2.28032 0.78495,-5.3e-4 1.58718,-0.19513 2.10369,-0.51007 0.98319,-0.59951 1.14948,-0.49819 1.14948,0.70038 0,0.79635 -0.12381,0.95109 -1.12448,1.4053 -1.2757,0.57907 -3.31087,0.64798 -4.66546,0.15798 z m -15.45697,-0.069 c -0.10138,-0.10138 -0.18434,-2.78387 -0.18434,-5.96107 v -5.77674 h 1.19063 1.19062 v 5.01596 5.01595 l 2.05052,0.0773 2.05053,0.0773 v 0.79375 0.79375 l -3.05682,0.0741 c -1.68124,0.0408 -3.13976,-0.009 -3.24114,-0.11024 z m 7.87749,-0.15379 c -0.0745,-0.1941 -0.10316,-2.85013 -0.0637,-5.90231 l 0.0717,-5.54942 h 1.19062 1.19063 v 5.82084 5.82083 l -1.1269,0.0815 c -0.75662,0.0547 -1.1714,-0.0345 -1.26232,-0.27142 z m 15.22151,-5.63089 v -5.95313 h 1.18137 1.18136 l 0.0754,2.71198 0.0754,2.71198 1.82629,-2.71198 1.82629,-2.71198 h 1.17895 c 1.14612,0 1.17401,0.0197 1.00125,0.70804 -0.0977,0.38942 -0.91985,1.66934 -1.82691,2.84427 l -1.64921,2.13623 1.76432,2.51355 c 0.97037,1.38244 1.84713,2.78143 1.94835,3.10885 0.17351,0.56128 0.11116,0.59473 -1.09056,0.58518 l -1.27461,-0.0101 -1.85208,-2.96642 -1.85208,-2.96643 -0.0748,2.97657 -0.0748,2.97656 h -1.18196 -1.18196 v -5.95313 z m -30.1625,-7.78909 -3.30729,-0.14841 -0.1323,-12.12913 -0.13229,-12.129129 -2.8383,2.171703 c -2.70975,2.073335 -3.64399,2.456496 -3.64399,1.494511 0,-0.202412 4.98936,-4.198574 11.08746,-8.880359 6.0981,-4.681784 11.15452,-8.687098 11.23649,-8.900697 0.19331,-0.50377 1.46066,-0.504321 1.65391,-7.2e-4 0.0818,0.213203 5.19777,4.218596 11.36878,8.900872 6.17101,4.682277 11.22003,8.678762 11.22003,8.881079 0,0.973492 -0.94381,0.58038 -3.77991,-1.574398 l -2.96697,-2.254203 -0.13229,12.210231 -0.13229,12.21024 -6.40789,0.22991 c -3.52434,0.12645 -6.5902,0.15995 -6.81303,0.0745 -0.34414,-0.13206 -0.40512,-0.91343 -0.40512,-5.19085 v -5.03539 h -2.77242 -2.77241 l -0.0719,5.09323 -0.0718,5.09323 -3.43959,0.0161 c -1.89177,0.009 -4.92786,-0.0507 -6.74687,-0.13229 z m 9.05626,-6.16768 0.0719,-5.09323 h 3.96875 3.96875 l 0.072,5.13428 0.072,5.13429 4.00496,-0.17335 c 2.20273,-0.0953 4.7004,-0.17335 5.55039,-0.17335 h 1.54543 V 99.78029 87.622927 l -4.96093,-3.766612 c -2.72852,-2.071636 -6.15157,-4.67786 -7.60677,-5.791608 l -2.64584,-2.024996 -7.6047,5.844283 -7.60471,5.844282 -0.002,12.095737 -0.002,12.095737 2.84427,0.0851 c 1.56435,0.0468 4.06209,0.11034 5.55054,0.14124 l 2.70626,0.0562 0.0719,-5.09323 z"
       id="path856" />
  </g>
</svg>
